<svg width="186" height="108" viewBox="0 0 186 108" fill="none" xmlns="http://www.w3.org/2000/svg">
<rect width="186" height="108" fill="white"/>
<line x1="85.335" y1="18.9202" x2="102.806" y2="18.9202" stroke="black"/>
<line x1="85.335" y1="28.5822" x2="102.806" y2="28.5822" stroke="black"/>
<line x1="10.6779" y1="38.2441" x2="135.268" y2="38.2441" stroke="black"/>
<line x1="10.6779" y1="47.9059" x2="135.268" y2="47.9059" stroke="black"/>
<line x1="10.6779" y1="57.5679" x2="135.268" y2="57.5679" stroke="black"/>
<line x1="10.6779" y1="67.2299" x2="135.268" y2="67.2299" stroke="black"/>
<line x1="10.6779" y1="76.8917" x2="135.268" y2="76.8917" stroke="black"/>
<line x1="85.335" y1="86.5537" x2="102.806" y2="86.5537" stroke="black"/>
<line x1="85.335" y1="96.2157" x2="102.806" y2="96.2157" stroke="black"/>
<path fill-rule="evenodd" clip-rule="evenodd" d="M25.5051 40.4329C22.0031 40.3744 21.0078 42.4514 20.3395 43.846C20.3075 43.9127 20.2763 43.9779 20.2456 44.0411C20.1354 44.4816 20.2498 44.4714 20.4634 44.4523C20.487 44.4502 20.5119 44.4479 20.5378 44.4462C24.9845 44.1485 25.8589 45.9532 25.8719 47.588C25.8797 48.5665 24.724 50.5115 22.1937 50.4743C19.5889 50.3255 18.8633 48.6696 18.3498 47.4657C16.3711 42.8271 22.6402 39.7018 25.3566 39.4786C27.0124 39.3425 32.9992 39.4712 35.2899 44.4691C37.3081 48.8724 35.5346 53.5814 32.3545 57.4342C29.1743 61.287 19.9399 66.2406 18.5944 66.791C17.5181 67.2314 17.2898 66.8114 17.3102 66.5464C18.3498 65.9349 21.0162 64.2103 23.3646 62.2043C26.3001 59.697 29.5414 56.0276 31.1926 50.0343C32.8438 44.041 28.6847 40.486 25.5051 40.4329ZM41.3565 43.9318C41.3565 44.9695 40.5153 45.8107 39.4776 45.8107C38.4399 45.8107 37.5986 44.9695 37.5986 43.9318C37.5986 42.8941 38.4399 42.0528 39.4776 42.0528C40.5153 42.0528 41.3565 42.8941 41.3565 43.9318ZM39.4776 53.6787C40.5153 53.6787 41.3565 52.8375 41.3565 51.7998C41.3565 50.7621 40.5153 49.9209 39.4776 49.9209C38.4399 49.9209 37.5986 50.7621 37.5986 51.7998C37.5986 52.8375 38.4399 53.6787 39.4776 53.6787Z" fill="black"/>
<path fill-rule="evenodd" clip-rule="evenodd" d="M52.4669 37.6729H51.9927V42.5055L49.9843 43.0449V38.5098H49.51V43.1722L48.5896 43.4194V45.3163L49.51 45.0691V49.616L48.5896 49.8632V51.7601L49.51 51.5129V56.2233H49.9843V51.3855L51.9927 50.8461V55.3864H52.4669V50.7187L53.4712 50.449V48.5521L52.4669 48.8218V44.275L53.4712 44.0053V42.1084L52.4669 42.3781V37.6729ZM51.9927 44.4024L49.9843 44.9418V49.4886L51.9927 48.9492V44.4024Z" fill="black"/>
<path d="M49.3853 53.1027C49.3853 57.6185 49.3894 61.314 49.3935 61.314C49.4032 61.314 49.4211 61.2974 49.9037 60.8576C50.9158 59.9351 51.5074 59.4566 52.3843 58.8526C52.5595 58.7327 52.8035 58.5603 52.929 58.4693C53.8777 57.7799 54.4444 57.1869 54.7491 56.5664C54.8553 56.3513 54.9132 56.1859 54.9587 55.9735C54.9987 55.7832 55.0015 55.4592 54.9643 55.2882C54.8181 54.6153 54.2417 53.9976 53.5081 53.7259C53.2696 53.6377 53.0793 53.6032 52.798 53.5963C52.0451 53.577 51.2923 53.8362 50.3739 54.4292C50.2995 54.4774 50.2333 54.5133 50.225 54.5091C50.2181 54.5036 50.2126 52.6835 50.2126 49.6954V44.8913H49.7989H49.3853V53.1027ZM51.9817 54.5629C52.4312 54.6953 52.7442 55.0235 52.8711 55.4937C52.9014 55.6109 52.9056 55.6536 52.9069 55.8604C52.9069 56.0521 52.9014 56.1211 52.8766 56.2341C52.7277 56.9222 52.2465 57.6682 51.324 58.6417C50.8896 59.0981 50.2415 59.7351 50.2264 59.72C50.2167 59.7103 50.214 59.0443 50.2153 57.624L50.2195 55.5433L50.2636 55.4592C50.3932 55.2096 50.7462 54.8814 51.0785 54.6994C51.4053 54.5188 51.6852 54.4774 51.9817 54.5629Z" fill="black"/>
<path fill-rule="evenodd" clip-rule="evenodd" d="M84.2333 32.3667H83.0942V49.8914C81.9637 48.8333 80.1314 48.2916 78.1798 48.59C75.2016 49.0454 73.0734 51.2848 73.4262 53.5917C73.7789 55.8987 76.4792 57.3997 79.4573 56.9443C82.3586 56.5006 84.4533 54.3639 84.2333 52.1209V32.3667Z" fill="black"/>
<path fill-rule="evenodd" clip-rule="evenodd" d="M19.1478 65.7918C18.8249 68.1054 20.8515 70.3875 21.9052 71.2394L21.271 71.5456C19.3852 70.9284 16.5736 68.1168 16.7793 65.5795C17.1587 60.9008 19.7858 58.8189 22.4355 58.029L21.6226 52.8993C17.5631 57.3143 13.8358 61.9347 13.9694 64.5813C14.3868 72.8499 19.1454 75.5038 23.0487 75.2747C23.7782 75.2319 24.4719 75.1338 25.1213 74.9776L23.0289 61.7736C21.5555 62.2605 19.458 63.5694 19.1478 65.7918ZM23.835 61.5771L25.8109 74.7843C28.7988 73.8205 30.6716 71.467 30.4467 67.4059C30.1455 61.9662 25.2681 61.5548 24.1248 61.5548C24.0401 61.5548 23.9427 61.5622 23.835 61.5771ZM22.4097 52.0499C23.3488 51.0438 24.2934 50.0559 25.2008 49.1127C26.9495 47.4986 30.3391 43.0329 29.9087 38.083C29.4782 33.133 28.0255 30.6402 27.3529 30.0125C24.8869 30.8643 20.0222 34.236 20.2912 40.9076C20.5114 46.3673 20.8066 47.9056 20.9926 48.0509C17.2909 50.9162 10.5088 57.2826 10.9428 64.514C11.4292 72.6171 17.7354 76.4853 22.914 76.149C24.3816 76.0537 25.282 75.9908 25.7975 75.9527C25.6203 75.9701 25.4301 75.9913 25.2679 76.0145L26.075 81.4621C26.2428 86.118 24.8644 88.1875 22.4432 89.0618C20.0221 89.9361 18.3856 89.5102 18.408 88.9273C19.2938 88.6081 21.0081 87.6574 21.5454 86.8038C22.5883 85.1466 22.6426 82.7921 20.0024 81.7977C17.3622 80.8034 14.6614 83.416 14.9278 85.5351C15.241 88.0278 15.7213 89.6125 19.1452 90.164C22.5577 90.7137 25.5571 88.141 26.2428 86.118C26.9286 84.095 26.8257 82.6207 26.7229 81.4206C26.6425 80.4828 26.2284 77.4403 26.0175 75.9361C26.6102 75.8907 26.4066 75.8979 26.0169 75.9322L26.0028 75.8316C28.7344 74.8716 33.1009 73.1572 33.4435 67.0882C33.7898 60.9562 29.7745 58.2075 26.7914 57.7275C25.8599 57.5776 24.5932 57.5536 23.273 57.8204L22.4097 52.0499ZM23.1464 37.9851C21.1233 41.109 21.3118 45.5592 21.6588 47.3939C22.1919 47.0468 23.9869 45.3485 26.9024 41.3321C29.818 37.3158 28.4396 33.7333 27.3859 32.4441C26.8157 32.9895 25.1694 34.8613 23.1464 37.9851Z" fill="black"/>
</svg>
