<svg width="640" height="360" viewBox="0 0 640 360" fill="none" xmlns="http://www.w3.org/2000/svg">
<rect width="640" height="360" fill="white"/>
<path d="M37.4714 6.91309H44.0974V56.9584H49.0864V81.9028L48.1486 82.4443H38.4069L37.4124 81.8701L37.4714 6.91309Z" fill="white" stroke="black" stroke-width="1.065"/>
<path d="M45.2084 7.49854V55.9498H51.3819V7.52607L45.2084 7.49854Z" fill="black" stroke="black" stroke-width="1.065"/>
<path d="M52.1817 6.83765V56.9424H49.536V81.8563L50.6318 82.489H60.1743L61.175 81.9113V56.9147H58.6034V6.83752L52.1817 6.83765Z" fill="white" stroke="black" stroke-width="1.065"/>
<path d="M59.658 7.41895V55.8702H65.8315V7.44648L59.658 7.41895Z" fill="black" stroke="black" stroke-width="1.065"/>
<path d="M66.7037 6.83765V56.9192H61.7147V81.8636L62.837 82.5115H72.3163L73.3906 81.8913V6.8378L66.7037 6.83765Z" fill="white" stroke="black" stroke-width="1.065"/>
<path d="M73.9147 6.83775V81.8057L75.1247 82.5043H84.5942L85.5814 81.9343V56.9581H80.1704V6.8374L73.9147 6.83775Z" fill="white" stroke="black" stroke-width="1.065"/>
<path d="M80.923 7.41895V55.8702H87.0965V7.44648L80.923 7.41895Z" fill="black" stroke="black" stroke-width="1.065"/>
<path d="M94.7987 7.41895V55.8702H100.972V7.44648L94.7987 7.41895Z" fill="black" stroke="black" stroke-width="1.065"/>
<path d="M108.674 7.41895V55.8702H114.848V7.44648L108.674 7.41895Z" fill="black" stroke="black" stroke-width="1.065"/>
<path d="M87.8297 6.83779V56.9005H86.1147V81.884L87.1032 82.4547H96.6968L97.6669 81.8946V56.8995H94.0465V6.83679L87.8297 6.83779Z" fill="white" stroke="black" stroke-width="1.065"/>
<path d="M101.724 6.83765V56.9192H98.3138V81.8447L99.4547 82.5034H108.974L110.001 81.9106V56.8807H107.941V6.83833L101.724 6.83765Z" fill="white" stroke="black" stroke-width="1.065"/>
<path d="M115.581 6.8378V56.9193H110.339V81.9029L111.423 82.5291H120.96L122.008 81.924V6.83716L115.581 6.8378Z" fill="white" stroke="black" stroke-width="1.065"/>
<path d="M23.5651 7.3927V55.8439H29.7386V7.42023L23.5651 7.3927Z" fill="black" stroke="black" stroke-width="1.065"/>
<path d="M13.211 6.82058L13.205 81.8175L14.3458 82.4762H23.865L24.8917 81.8834L24.9599 56.8622H22.9004V6.81982L13.211 6.82058Z" fill="white" stroke="black" stroke-width="1.065"/>
<path d="M30.472 6.81168V56.8932H25.2296V81.8767L26.3142 82.5029H35.8507L36.8988 81.8978V6.81104L30.472 6.81168Z" fill="white" stroke="black" stroke-width="1.065"/>
<path d="M122.53 6.88257H129.156V56.9279H134.145V81.8723L133.207 82.4137H123.465L122.471 81.8396L122.53 6.88257Z" fill="white" stroke="black" stroke-width="1.065"/>
<path d="M130.267 7.4696V55.9208H136.44V7.49714L130.267 7.4696Z" fill="black" stroke="black" stroke-width="1.065"/>
<path d="M137.24 6.80885V56.9136H134.594V81.8275L135.69 82.4602H145.233L146.233 81.8825V56.8859H143.662V6.80872L137.24 6.80885Z" fill="white" stroke="black" stroke-width="1.065"/>
<path d="M144.715 7.38989V55.8411H150.889V7.41743L144.715 7.38989Z" fill="black" stroke="black" stroke-width="1.065"/>
<path d="M151.762 6.80872V56.8903H146.773V81.8347L147.896 82.4826H157.375L158.449 81.8623V6.80888L151.762 6.80872Z" fill="white" stroke="black" stroke-width="1.065"/>
<path d="M158.976 6.80876V81.7767L160.186 82.4753H169.656L170.643 81.9054V56.9291H165.232V6.80847L158.976 6.80876Z" fill="white" stroke="black" stroke-width="1.065"/>
<path d="M165.976 7.38989V55.8411H172.149V7.41743L165.976 7.38989Z" fill="black" stroke="black" stroke-width="1.065"/>
<path d="M179.859 7.38989V55.8411H186.032V7.41743L179.859 7.38989Z" fill="black" stroke="black" stroke-width="1.065"/>
<path d="M193.727 7.38989V55.8411H199.901V7.41743L193.727 7.38989Z" fill="black" stroke="black" stroke-width="1.065"/>
<path d="M172.888 6.80874V56.8714H171.173V81.8549L172.162 82.4256H181.755L182.725 81.8655V56.8704H179.105V6.80774L172.888 6.80874Z" fill="white" stroke="black" stroke-width="1.065"/>
<path d="M186.785 6.80872V56.8902H183.375V81.8158L184.516 82.4744H194.035L195.062 81.8817V56.8518H193.002V6.80941L186.785 6.80872Z" fill="white" stroke="black" stroke-width="1.065"/>
<path d="M200.64 6.80878V56.8903H195.397V81.8738L196.482 82.5001H206.018L207.066 81.8949V6.80811L200.64 6.80878Z" fill="white" stroke="black" stroke-width="1.065"/>
<path d="M207.494 6.92749H214.12V56.9728H219.109V81.9172L218.171 82.4587H208.429L207.435 81.8845L207.494 6.92749Z" fill="white" stroke="black" stroke-width="1.065"/>
<path d="M215.233 7.51453V55.9658H221.406V7.54206L215.233 7.51453Z" fill="black" stroke="black" stroke-width="1.065"/>
<path d="M222.203 6.8522V56.9569H219.557V81.8709L220.653 82.5035H230.196L231.196 81.9258V56.9292H228.625V6.85205L222.203 6.8522Z" fill="white" stroke="black" stroke-width="1.065"/>
<path d="M229.681 7.43335V55.8846H235.854V7.46088L229.681 7.43335Z" fill="black" stroke="black" stroke-width="1.065"/>
<path d="M236.724 6.85229V56.9338H231.735V81.8782L232.857 82.5262H242.336L243.411 81.9059V6.85243L236.724 6.85229Z" fill="white" stroke="black" stroke-width="1.065"/>
<path d="M243.926 6.85229V81.8203L245.136 82.5189H254.605L255.593 81.9489V56.9726H250.182V6.85193L243.926 6.85229Z" fill="white" stroke="black" stroke-width="1.065"/>
<path d="M250.94 7.43335V55.8846H257.114V7.46088L250.94 7.43335Z" fill="black" stroke="black" stroke-width="1.065"/>
<path d="M264.823 7.43335V55.8846H270.996V7.46088L264.823 7.43335Z" fill="black" stroke="black" stroke-width="1.065"/>
<path d="M278.691 7.43335V55.8846H284.865V7.46088L278.691 7.43335Z" fill="black" stroke="black" stroke-width="1.065"/>
<path d="M257.852 6.85215V56.9148H256.137V81.8984L257.126 82.4691H266.72L267.69 81.909V56.9139H264.069V6.8512L257.852 6.85215Z" fill="white" stroke="black" stroke-width="1.065"/>
<path d="M271.735 6.85229V56.9338H268.325V81.8594L269.466 82.5181H278.985L280.012 81.9253V56.8954H277.952V6.85296L271.735 6.85229Z" fill="white" stroke="black" stroke-width="1.065"/>
<path d="M285.604 6.85231V56.9338H280.362V81.9174L281.446 82.5435H290.983L292.031 81.9385V6.85168L285.604 6.85231Z" fill="white" stroke="black" stroke-width="1.065"/>
<path d="M292.545 6.89722H299.171V56.9425H304.16V81.8869L303.222 82.4284H293.481L292.486 81.8542L292.545 6.89722Z" fill="white" stroke="black" stroke-width="1.065"/>
<path d="M300.284 7.48413V55.9354H306.457V7.51167L300.284 7.48413Z" fill="black" stroke="black" stroke-width="1.065"/>
<path d="M307.254 6.82326V56.928H304.608V81.8419L305.704 82.4746H315.247L316.247 81.8969V56.9003H313.676V6.82312L307.254 6.82326Z" fill="white" stroke="black" stroke-width="1.065"/>
<path d="M314.732 7.40442V55.8556H320.906V7.43195L314.732 7.40442Z" fill="black" stroke="black" stroke-width="1.065"/>
<path d="M321.775 6.82324V56.9048H316.786V81.8492L317.908 82.4971H327.387L328.462 81.8768V6.82337L321.775 6.82324Z" fill="white" stroke="black" stroke-width="1.065"/>
<path d="M328.992 6.82321V81.7912L330.202 82.4898H339.671L340.658 81.9198V56.9436H335.247V6.82288L328.992 6.82321Z" fill="white" stroke="black" stroke-width="1.065"/>
<path d="M335.991 7.40442V55.8556H342.164V7.43195L335.991 7.40442Z" fill="black" stroke="black" stroke-width="1.065"/>
<path d="M349.874 7.40149V55.6498H356.022V7.42902L349.874 7.40149Z" fill="black" stroke="black" stroke-width="1.0606"/>
<path d="M363.685 7.40149V55.6498H369.832V7.42902L363.685 7.40149Z" fill="black" stroke="black" stroke-width="1.0606"/>
<path d="M342.904 6.82333V56.886H341.189V81.8696L342.177 82.4402H351.771L352.741 81.8802V56.8851H349.12V6.82239L342.904 6.82333Z" fill="white" stroke="black" stroke-width="1.065"/>
<path d="M356.772 6.82178V56.6932H353.376V81.5144L354.512 82.1704H363.991L365.014 81.58V56.6545H362.963V6.82217L356.772 6.82178Z" fill="white" stroke="black" stroke-width="1.0606"/>
<path d="M370.568 6.82178V56.6932H365.348V81.5724L366.428 82.1959H375.924L376.968 81.5934V6.82104L370.568 6.82178Z" fill="white" stroke="black" stroke-width="1.0606"/>
<path d="M377.35 6.83044H383.948V56.6671H388.916V81.5072L387.982 82.0464H378.282L377.291 81.4746L377.35 6.83044Z" fill="white" stroke="black" stroke-width="1.0606"/>
<path d="M385.045 7.41455V55.6629H391.193V7.44209L385.045 7.41455Z" fill="black" stroke="black" stroke-width="1.0606"/>
<path d="M391.987 6.75667V56.6513H389.352V81.4609L390.443 82.0909H399.946L400.942 81.5156V56.6234H398.381V6.75635L391.987 6.75667Z" fill="white" stroke="black" stroke-width="1.0606"/>
<path d="M399.435 7.33618V55.5845H405.583V7.36372L399.435 7.33618Z" fill="black" stroke="black" stroke-width="1.0606"/>
<path d="M406.449 6.75654V56.628H401.481V81.468L402.599 82.1133H412.038L413.108 81.4956V6.75513L406.449 6.75654Z" fill="white" stroke="black" stroke-width="1.0606"/>
<path d="M413.637 6.7565V81.41L414.842 82.1057H424.272L425.255 81.5381V56.6662H419.867V6.75562L413.637 6.7565Z" fill="white" stroke="black" stroke-width="1.0606"/>
<path d="M420.608 7.33618V55.5845H426.755V7.36372L420.608 7.33618Z" fill="black" stroke="black" stroke-width="1.0606"/>
<path d="M434.433 7.33618V55.5845H440.58V7.36372L434.433 7.33618Z" fill="black" stroke="black" stroke-width="1.0606"/>
<path d="M448.243 7.33618V55.5845H454.391V7.36372L448.243 7.33618Z" fill="black" stroke="black" stroke-width="1.0606"/>
<path d="M427.491 6.75659V56.6092H425.783V81.4884L426.768 82.0566H436.321L437.287 81.4989V56.6096H433.682V6.75699L427.491 6.75659Z" fill="white" stroke="black" stroke-width="1.0606"/>
<path d="M441.331 6.75659V56.628H437.934V81.4492L439.07 82.1052H448.55L449.572 81.5149V56.5893H447.521V6.75702L441.331 6.75659Z" fill="white" stroke="black" stroke-width="1.0606"/>
<path d="M455.127 6.75658V56.628H449.906V81.5072L450.986 82.1308H460.483L461.527 81.5282V6.75586L455.127 6.75658Z" fill="white" stroke="black" stroke-width="1.0606"/>
<path d="M462.039 6.80151H468.638V56.6381H473.606V81.4782L472.672 82.0174H462.971L461.98 81.4456L462.039 6.80151Z" fill="white" stroke="black" stroke-width="1.0606"/>
<path d="M469.749 7.3855V55.6338H475.896V7.41303L469.749 7.3855Z" fill="black" stroke="black" stroke-width="1.0606"/>
<path d="M476.69 6.72765V56.6222H474.055V81.4319L475.146 82.0618H484.649L485.645 81.4866V56.5944H483.085V6.72729L476.69 6.72765Z" fill="white" stroke="black" stroke-width="1.0606"/>
<path d="M484.139 7.30579V55.5541H490.287V7.33332L484.139 7.30579Z" fill="black" stroke="black" stroke-width="1.0606"/>
<path d="M491.153 6.72764V56.599H486.185V81.4391L487.302 82.0844H496.742L497.812 81.4667V6.7262L491.153 6.72764Z" fill="white" stroke="black" stroke-width="1.0606"/>
<path d="M498.341 6.72759V81.3811L499.546 82.0768H508.975L509.958 81.5092V56.6372H504.57V6.72668L498.341 6.72759Z" fill="white" stroke="black" stroke-width="1.0606"/>
<path d="M505.311 7.30579V55.5541H511.459V7.33332L505.311 7.30579Z" fill="black" stroke="black" stroke-width="1.0606"/>
<path d="M519.136 7.30579V55.5541H525.284V7.33332L519.136 7.30579Z" fill="black" stroke="black" stroke-width="1.0606"/>
<path d="M532.947 7.30579V55.5541H539.094V7.33332L532.947 7.30579Z" fill="black" stroke="black" stroke-width="1.0606"/>
<path d="M512.195 6.72754V56.5801H510.487V81.4593L511.471 82.0276H521.024L521.991 81.4699V56.5805H518.385V6.72794L512.195 6.72754Z" fill="white" stroke="black" stroke-width="1.0606"/>
<path d="M526.034 6.72754V56.5989H522.638V81.4202L523.774 82.0761H533.253L534.276 81.4858V56.5602H532.225V6.72794L526.034 6.72754Z" fill="white" stroke="black" stroke-width="1.0606"/>
<path d="M539.83 6.72769V56.5991H534.61V81.4783L535.69 82.1019H545.186L546.23 81.4993V6.72693L539.83 6.72769Z" fill="white" stroke="black" stroke-width="1.0606"/>
<path d="M546.641 6.84497H553.239V56.6816H558.207V81.5217L557.273 82.0609H547.573L546.582 81.4891L546.641 6.84497Z" fill="white" stroke="black" stroke-width="1.0606"/>
<path d="M554.351 7.43042V55.6788H560.498V7.45795L554.351 7.43042Z" fill="black" stroke="black" stroke-width="1.0606"/>
<path d="M561.292 6.77107V56.6657H558.657V81.4753L559.749 82.1053H569.251L570.248 81.53V56.6378H567.687V6.77075L561.292 6.77107Z" fill="white" stroke="black" stroke-width="1.0606"/>
<path d="M568.741 7.35071V55.5991H574.888V7.37824L568.741 7.35071Z" fill="black" stroke="black" stroke-width="1.0606"/>
<path d="M575.755 6.77109V56.6425H570.787V81.4826L571.904 82.1278H581.344L582.414 81.5101V6.76965L575.755 6.77109Z" fill="white" stroke="black" stroke-width="1.0606"/>
<path d="M582.943 6.77105V81.4246L584.148 82.1202H593.578L594.561 81.5526V56.6807H589.172V6.77014L582.943 6.77105Z" fill="white" stroke="black" stroke-width="1.0606"/>
<path d="M589.913 7.35071V55.5991H596.061V7.37824L589.913 7.35071Z" fill="black" stroke="black" stroke-width="1.0606"/>
<path d="M603.738 7.35071V55.5991H609.886V7.37824L603.738 7.35071Z" fill="black" stroke="black" stroke-width="1.0606"/>
<path d="M596.796 6.77112V56.6237H595.089V81.5029L596.073 82.0712H605.626L606.592 81.5135V56.6241H602.987V6.77155L596.796 6.77112Z" fill="white" stroke="black" stroke-width="1.0606"/>
<path d="M610.636 6.77112V56.6425H607.24V81.4637L608.376 82.1196H617.855L618.878 81.5293V56.6038V6.77144L610.636 6.77112Z" fill="white" stroke="black" stroke-width="1.0606"/>
</svg>
