<?xml version="1.0" standalone="no"?>
<!DOCTYPE svg PUBLIC "-//W3C//DTD SVG 20010904//EN"
 "http://www.w3.org/TR/2001/REC-SVG-20010904/DTD/svg10.dtd">
<svg version="1.0" xmlns="http://www.w3.org/2000/svg"
 width="1280.000000pt" height="1280.000000pt" viewBox="0 0 1280.000000 1280.000000"
 preserveAspectRatio="xMidYMid meet">
<g transform="translate(0.000000,1280.000000) scale(0.100000,-0.100000)"
fill="#000000" stroke="none">
<path d="M5200 6565 c0 -3275 3 -5955 6 -5955 7 0 20 12 370 331 734 669 1163
1016 1799 1454 127 87 304 212 395 278 688 500 1099 930 1320 1380 77 156 119
276 152 430 29 138 31 373 4 497 -106 488 -524 936 -1056 1133 -173 64 -311
89 -515 94 -546 14 -1092 -174 -1758 -604 -54 -35 -102 -61 -108 -58 -5 4 -9
1324 -9 3491 l0 3484 -300 0 -300 0 0 -5955z m1883 -1059 c326 -96 553 -334
645 -675 22 -85 25 -116 26 -266 0 -139 -4 -189 -22 -271 -108 -499 -457
-1040 -1126 -1746 -315 -331 -785 -793 -796 -782 -7 7 -9 490 -8 1520 l3 1509
32 61 c94 181 350 419 591 551 237 131 440 161 655 99z"/>
</g>
</svg>
