<svg width="7" height="9" viewBox="0 0 7 9" fill="none" xmlns="http://www.w3.org/2000/svg">
<path d="M1.87683 8.99512V0.118652H3.004V8.43586L2.45487 8.02C2.67645 8.02956 2.88839 8.01044 3.09071 7.96264C3.30265 7.90528 3.49533 7.81924 3.66874 7.70452C3.85179 7.5898 4.00111 7.45118 4.11672 7.28866C4.2516 7.1357 4.34794 6.9684 4.40574 6.78676C4.46354 6.59556 4.49244 6.39958 4.49244 6.19882C4.49244 5.96938 4.45391 5.80686 4.37684 5.71126C4.29977 5.61566 4.19861 5.56786 4.07337 5.56786C3.86142 5.56786 3.64466 5.66346 3.42308 5.85466C3.2015 6.0363 3.01845 6.25618 2.87394 6.5143L2.70053 5.5822C2.92211 5.17112 3.19668 4.86519 3.52423 4.66443C3.85179 4.46367 4.17452 4.36329 4.49244 4.36329C4.9067 4.36329 5.22944 4.51626 5.46065 4.82218C5.7015 5.11854 5.82193 5.52005 5.82193 6.02674C5.82193 6.61946 5.65815 7.14526 5.3306 7.60414C5.00304 8.06302 4.55025 8.42152 3.97221 8.67964C3.7121 8.79436 3.44716 8.87562 3.17741 8.92342C2.90766 8.97122 2.61864 8.99512 2.31036 8.99512H1.87683Z" fill="black"/>
</svg>
