<svg width="20" height="54" viewBox="0 0 20 54" fill="none" xmlns="http://www.w3.org/2000/svg">
<g clip-path="url(#clip0_2001_1445)">
<path fill-rule="evenodd" clip-rule="evenodd" d="M12.1438 0.995484C10.838 2.46747 9.4223 5.47654 9.13068 7.39901C8.9036 8.89552 8.97666 12.9364 9.27233 15.2208L9.39525 16.1721L7.83786 17.3733C2.60803 21.4073 -0.011042 25.6651 3.49887e-05 30.1161C0.0123901 35.0817 2.34133 38.6309 6.97961 40.7529C8.04364 41.2398 8.53955 41.3212 10.9021 41.3971L13.6066 41.4837L13.72 42.0406C14.4998 45.8707 14.6926 49.5066 14.1694 50.511C13.9975 50.8407 13.4188 51.4933 12.8832 51.9612C11.3533 53.2974 9.31579 53.5915 7.6193 52.7209C6.8895 52.3463 6.86479 52.0905 7.54219 51.9218C8.24366 51.747 9.31217 50.8247 9.7201 50.0416C10.1794 49.1603 9.99702 47.7008 9.34071 47.0034C7.45379 44.9987 4.50731 45.7261 3.83843 48.3621C3.46117 49.8495 3.74875 51.08 4.71756 52.1231C5.94476 53.4443 7.36411 53.9919 9.58228 53.9997C11.1865 54.0054 11.5205 53.9365 12.5121 53.394C13.6394 52.7776 14.3356 52.0466 14.9827 50.7995C15.4614 49.877 15.4343 47.4924 14.9078 44.1827C14.6764 42.7293 14.486 41.4328 14.4845 41.3015C14.483 41.1704 14.7821 40.9396 15.1493 40.7887C15.5163 40.6377 16.2766 40.1536 16.8386 39.7128C20.2428 37.0422 21.0171 32.0741 18.577 28.5583C17.5 27.0064 16.1426 26.2678 13.7792 25.9481L11.9779 25.7042L11.5278 23.0522L11.0777 20.4001L12.222 19.3431C14.2674 17.4539 15.7568 15.2325 16.6249 12.7768C17.1969 11.1586 17.4039 7.89517 17.0492 6.09066C16.7142 4.38656 15.7415 1.88696 15.0002 0.825519C14.5284 0.149883 14.297 0 13.7253 0C13.1599 0 12.8585 0.189626 12.1438 0.995484ZM13.5114 4.64214C12.3179 5.12181 11.0557 7.27006 10.5255 9.72442C10.2269 11.107 10.1023 15.2208 10.3592 15.2208C10.6976 15.2208 12.4668 13.577 13.518 12.2857C14.974 10.4975 15.9724 8.44227 15.9726 7.2337C15.9728 5.99489 15.4778 4.90618 14.7976 4.64954C14.1545 4.40685 14.0979 4.40643 13.5114 4.64214ZM8.2835 22.4812C4.14794 25.9987 2.12661 29.2327 2.12661 32.3322C2.12661 34.4323 2.71731 35.8567 4.27192 37.506C6.29816 39.6555 9.06123 40.7561 11.8699 40.5324C12.6165 40.473 13.2779 40.3741 13.3395 40.313C13.4013 40.2517 13.0734 37.9343 12.6112 35.1631L11.7708 30.1246L11.2185 30.163C9.63468 30.2736 8.16399 31.7166 7.93905 33.3814C7.80314 34.386 8.6288 36.2962 9.48897 36.9676C9.95676 37.3327 10.1907 37.8407 9.89115 37.8407C9.12833 37.8407 6.98365 35.7575 6.45004 34.4984C6.26812 34.0693 6.10772 33.1 6.09345 32.3443C6.07257 31.2367 6.18206 30.7387 6.65752 29.7774C7.34366 28.3913 8.78686 26.9863 10.1306 26.3963C10.6491 26.1686 11.0743 25.9156 11.0755 25.8338C11.0879 24.9658 10.2978 21.14 10.1061 21.14C9.97082 21.14 9.1507 21.7436 8.2835 22.4812ZM12.7818 30.4945C12.7878 31.1642 14.2129 39.7583 14.3386 39.8832C14.5135 40.0566 15.622 39.3917 16.2148 38.7579C17.2243 37.6787 17.5373 36.8088 17.5332 35.0925C17.5275 32.6523 16.7527 31.2145 15.0143 30.4184C14.5456 30.2038 13.8505 30.026 13.4699 30.0235C12.8913 30.0197 12.7782 30.0971 12.7818 30.4945Z" fill="black"/>
</g>
<defs>
<clipPath id="clip0_2001_1445">
<rect width="20" height="54" fill="white"/>
</clipPath>
</defs>
</svg>
