<svg width="20" height="25" viewBox="0 0 20 25" fill="none" xmlns="http://www.w3.org/2000/svg">
<g clip-path="url(#clip0_2001_1446)">
<path fill-rule="evenodd" clip-rule="evenodd" d="M4.98911 0.195368C3.21081 0.923986 1.50766 2.58757 0.994303 4.09711C-0.147316 7.45473 1.96461 10.5119 4.88204 9.72469C7.21939 9.09398 7.89296 6.54812 6.08714 5.16925C5.48449 4.70905 5.22982 4.64448 4.01555 4.64448C3.25422 4.64448 2.57376 4.587 2.50359 4.51669C2.31947 4.33219 3.02344 2.83395 3.63488 2.10897C3.97693 1.70357 4.49449 1.38917 5.13384 1.19892C9.21086 -0.0142322 11.8277 2.92611 11.5249 8.3805C11.2132 13.9945 7.60751 19.1402 0.726822 23.7913C0.208878 24.1413 -0.0557343 24.4463 0.00984518 24.6174C0.0670122 24.7665 0.113664 24.9322 0.113664 24.9853C0.113664 25.2018 3.99777 22.9858 6.23187 21.4947C13.2611 16.8036 16.4701 12.0247 15.7948 7.25356C15.6898 6.5123 15.487 5.56527 15.3438 5.14894C14.6593 3.15793 13.1198 1.43802 11.2364 0.559773C10.2804 0.113942 9.87832 0.0482263 7.85702 0.00703436C6.37985 -0.0230453 5.3583 0.0440113 4.98911 0.195368ZM18.0859 2.38544C16.6814 2.90312 16.6196 4.98436 17.9932 5.50779C18.5681 5.72678 19.5506 5.41142 19.8107 4.9244C20.0219 4.52876 20.0577 3.58671 19.8791 3.12038C19.7642 2.82035 18.8367 2.23389 18.5256 2.26474C18.4415 2.27297 18.2436 2.32739 18.0859 2.38544ZM17.6808 9.53138C17.5106 9.63101 17.2641 9.97165 17.1334 10.2882C16.4611 11.9144 18.3178 13.3385 19.5284 12.1251C20.8121 10.839 19.2332 8.62228 17.6808 9.53138Z" fill="black"/>
</g>
<defs>
<clipPath id="clip0_2001_1446">
<rect width="20" height="25" fill="white"/>
</clipPath>
</defs>
</svg>
