<svg width="24" height="24" viewBox="0 0 24 24" fill="none" xmlns="http://www.w3.org/2000/svg">
<rect width="24" height="24" fill="white"/>
<path d="M12.0145 5.51318C14.3312 5.51318 16.2135 6.58466 17.5745 7.85884C18.9356 9.10406 19.8333 10.6099 20.2677 11.6524C20.3546 11.8841 20.3546 12.1447 20.2677 12.3764C19.8333 13.39 18.9356 14.8958 17.5745 16.17C16.2135 17.4442 14.3312 18.4867 12.0145 18.4867C9.66881 18.4867 7.78649 17.4442 6.42543 16.17C5.06437 14.8958 4.16665 13.39 3.73227 12.3764C3.6454 12.1447 3.6454 11.8841 3.73227 11.6524C4.16665 10.6099 5.06437 9.10406 6.42543 7.85884C7.78649 6.58466 9.66881 5.51318 12.0145 5.51318ZM7.84441 11.9999C7.84441 13.5058 8.62629 14.8668 9.92944 15.6198C11.2036 16.3727 12.7964 16.3727 14.0995 15.6198C15.3737 14.8668 16.1845 13.5058 16.1845 11.9999C16.1845 10.523 15.3737 9.16198 14.0995 8.40906C12.7964 7.65613 11.2036 7.65613 9.92944 8.40906C8.62629 9.16198 7.84441 10.523 7.84441 11.9999ZM12.0145 10.1466C12.0145 9.94387 11.9565 9.77012 11.8986 9.5674C11.8407 9.42261 11.9565 9.2199 12.1303 9.2199C13.2886 9.27782 14.3601 10.0887 14.6787 11.3049C15.0841 12.7818 14.2153 14.2877 12.7095 14.6931C11.2326 15.0985 9.69777 14.2008 9.3213 12.7239C9.26339 12.5212 9.23443 12.3185 9.23443 12.1447C9.20547 11.971 9.40818 11.8551 9.55297 11.9131C9.75568 11.971 9.92944 11.9999 10.1611 11.9999C11.1747 11.9999 12.0145 11.1891 12.0145 10.1466Z" fill="black"/>
</svg>
