<svg width="24" height="24" viewBox="0 0 24 24" fill="none" xmlns="http://www.w3.org/2000/svg">
<path d="M6.75601 1.51221H13.311V6.75616C13.311 7.4936 13.8845 8.06715 14.6219 8.06715H19.8659V19.8661C19.8659 21.3409 18.6778 22.488 17.2439 22.488H6.75601C5.28115 22.488 4.13403 21.3409 4.13403 19.8661V4.13419C4.13403 2.70029 5.28115 1.51221 6.75601 1.51221ZM14.6219 1.51221L19.8659 6.75616H14.6219V1.51221ZM8.7225 12.0001C8.35378 12.0001 8.067 12.3279 8.067 12.6556C8.067 13.0243 8.35378 13.3111 8.7225 13.3111H15.2774C15.6052 13.3111 15.9329 13.0243 15.9329 12.6556C15.9329 12.3279 15.6052 12.0001 15.2774 12.0001H8.7225ZM8.7225 14.6221C8.35378 14.6221 8.067 14.9498 8.067 15.2776C8.067 15.6463 8.35378 15.9331 8.7225 15.9331H15.2774C15.6052 15.9331 15.9329 15.6463 15.9329 15.2776C15.9329 14.9498 15.6052 14.6221 15.2774 14.6221H8.7225ZM8.7225 17.2441C8.35378 17.2441 8.067 17.5718 8.067 17.8996C8.067 18.2683 8.35378 18.5551 8.7225 18.5551H15.2774C15.6052 18.5551 15.9329 18.2683 15.9329 17.8996C15.9329 17.5718 15.6052 17.2441 15.2774 17.2441H8.7225Z" fill="black"/>
</svg>
