<svg width="24" height="24" viewBox="0 0 24 24" fill="none" xmlns="http://www.w3.org/2000/svg">
<path d="M6.76945 21.0042C5.79473 20.8412 4.61809 20.2295 3.87427 19.4989L3.40798 19.0409L2.99473 19.145C1.91401 19.4171 0.894637 18.5513 0.883864 17.352C0.878321 16.7349 1.18104 16.0856 1.60114 15.8136L1.90942 15.614L1.91115 14.8349C1.915 13.1448 2.56487 11.5252 3.69761 10.3827C4.43018 9.64382 5.03204 9.27359 6.08199 8.91599C6.69481 8.70727 7.01921 8.65917 8.0572 8.62312C10.0837 8.55272 11.8992 8.92963 13.7265 9.80009C14.251 10.0499 14.6898 10.2435 14.7016 10.2303C14.7134 10.2171 14.3939 9.64947 13.9916 8.96893C12.8174 6.98254 12.2403 5.74752 12.1952 5.12441C12.1465 4.45156 12.3202 4.15375 12.8433 4.01289C13.8026 3.75457 14.8215 4.36098 15.819 5.78389C16.0928 6.17457 16.3286 6.49422 16.343 6.49422C16.3574 6.49422 16.3125 6.25706 16.2432 5.9672C16.1738 5.67734 16.0911 5.0666 16.0592 4.60999C16.0119 3.93138 16.0299 3.71956 16.1579 3.44984C16.4493 2.83584 17.0857 2.77569 17.8906 3.28611C19.1408 4.079 19.9492 6.6464 20.1179 10.3606L20.1787 11.6991L20.4685 11.7461C21.3245 11.885 22.3172 12.6763 22.7524 13.5666C23.8124 15.7348 22.4469 18.287 20.0668 18.5858C19.3206 18.6795 19.2785 18.7003 19.0883 19.068C18.8075 19.6111 19.0957 20.1999 19.7033 20.3241C20.0666 20.3984 20.2383 20.6339 20.0949 20.8613C20.0021 21.0084 19.7234 21.0237 16.7347 21.0457C13.8622 21.0669 13.4585 21.0526 13.3305 20.9246C13.1484 20.7426 13.1482 20.6594 13.3295 20.4783C13.4533 20.3544 13.821 20.3343 15.9516 20.3343H18.4297L18.3528 20.0822C18.1282 19.3459 18.3771 18.5474 18.952 18.16C19.2487 17.96 19.3821 17.9247 20.2633 17.8125C21.0761 17.7091 22.0351 16.8427 22.2703 15.9997C22.4716 15.2777 22.4061 14.5291 22.0843 13.8754C21.6664 13.0265 21.0258 12.5616 20.0596 12.4059C19.4404 12.3062 19.4181 12.2667 19.4177 11.272C19.4167 8.47562 18.8511 5.64607 18.0609 4.48424C17.7069 3.96383 17.1502 3.58906 16.8832 3.6915C16.591 3.80365 16.7814 5.18806 17.4767 8.00654C18.4527 11.963 18.4731 12.1268 17.9842 12.0684C17.6843 12.0326 17.6844 12.0328 17.2231 10.5729C16.5317 8.38426 15.6502 6.59118 14.7723 5.58761C14.3391 5.09241 13.5203 4.62703 13.1696 4.67672C12.9814 4.70339 12.9568 4.75572 12.9607 5.12129C12.9666 5.66638 13.2644 6.28867 14.7241 8.80556C16.2669 11.4659 16.5065 11.9305 16.4698 12.1902C16.4087 12.6217 16.0907 12.5066 15.371 11.7925C14.5473 10.9752 13.6161 10.4321 12.2329 9.9624C9.69736 9.10136 7.04265 9.11426 5.3659 9.99575C4.67628 10.3583 3.78905 11.2201 3.40353 11.9019C2.84396 12.8915 2.69021 13.549 2.69625 14.9266C2.70107 16.0251 2.72805 16.2333 2.93665 16.7818C3.06588 17.1217 3.31092 17.6309 3.48116 17.9135C3.88155 18.5782 4.87152 19.5116 5.49797 19.8151C6.44388 20.2734 6.89599 20.3343 9.35513 20.3343H11.6273V20.0502C11.6273 19.894 11.5619 19.6283 11.4819 19.4598C11.2466 18.9639 10.9571 18.8303 9.99484 18.7735C9.43012 18.7402 9.11601 18.682 9.06619 18.6014C9.01835 18.5239 9.13764 18.1912 9.39347 17.6884C9.61487 17.2532 9.85895 16.6497 9.93588 16.3472C10.1396 15.546 10.1155 14.2077 9.8821 13.3684C9.61769 12.4175 9.61221 12.2291 9.84801 12.1954C10.1058 12.1586 10.199 12.2945 10.4283 13.0414C10.9113 14.6144 10.7575 16.1106 9.91666 18.0199C9.88193 18.0988 9.96206 18.1347 10.1739 18.135C11.1979 18.1368 12.0244 18.8494 12.2139 19.8941C12.2872 20.2981 12.0971 20.8225 11.8244 20.9685C11.6468 21.0635 7.30753 21.0942 6.76945 21.0042ZM2.7502 18.1116C2.59905 17.8469 2.37141 17.3211 2.24432 16.943C2.11723 16.5649 1.98009 16.258 1.93956 16.261C1.89902 16.2641 1.76941 16.4083 1.65152 16.5818C1.47157 16.8466 1.44326 16.9838 1.47502 17.4375C1.50883 17.9202 1.54858 18.0105 1.84841 18.2853C2.12718 18.5408 2.25513 18.5928 2.60449 18.5928H3.02501L2.7502 18.1116ZM20.0971 15.2588C19.9873 14.9726 20.0985 14.7891 20.3816 14.7891C20.6246 14.7891 20.6553 14.8199 20.6553 15.064C20.6553 15.296 20.6158 15.3436 20.4027 15.3681C20.2415 15.3866 20.131 15.3471 20.0971 15.2588Z" fill="black" stroke="black" stroke-width="0.3"/>
</svg>
