<svg width="24" height="24" viewBox="0 0 24 24" fill="none" xmlns="http://www.w3.org/2000/svg">
<path d="M3.67006 21.024C3.49346 20.7318 3.92987 19.8157 6.00743 16.1178C7.5863 13.3076 7.86202 12.6954 7.61302 12.5528C7.13269 12.2779 6.70465 11.781 6.70465 11.4982C6.70465 11.3482 6.36555 11.1819 5.90678 11.1068C4.88927 10.9404 4.07084 10.1523 4.23229 9.49437C4.32583 9.1132 4.23935 8.98079 3.7658 8.78017C2.51727 8.25122 1.8255 7.02928 2.42655 6.41453C2.60614 6.23085 2.56693 6.07277 2.25493 5.72247C1.67335 5.06951 1.4093 4.47464 1.4093 3.81733C1.4093 2.55645 2.23703 2.44745 3.76541 3.50707C4.35724 3.91739 6.20944 4.94839 7.88139 5.7982L10.9213 7.3433L11.2998 6.5272C12.376 4.20704 15.031 3.26734 16.7779 4.58832C17.3445 5.01676 17.3666 5.01789 18.437 4.67278C19.0336 4.48041 20.2123 4.27461 21.0563 4.21545C22.3914 4.12185 22.5907 4.15067 22.5907 4.43744C22.5907 4.61869 22.5414 4.76699 22.4812 4.76699C21.8389 4.76699 19.33 5.29738 18.5332 5.60162C17.3911 6.03769 17.4528 5.92022 16.615 9.25419C16.0285 11.5887 15.3534 12.9462 14.2911 13.9279C13.3818 14.768 11.7037 15.5972 10.6085 15.7475C9.90756 15.8436 9.74433 15.9875 8.93299 17.2244C8.43859 17.9781 7.61511 18.9956 7.10304 19.4855C5.68488 20.8422 4.01297 21.5915 3.67006 21.024ZM6.59207 18.6915C7.47702 17.7864 8.77067 16.0287 8.63576 15.9147C8.5984 15.8832 8.29501 15.8044 7.96156 15.7396C7.36754 15.6243 7.33218 15.6632 6.21257 17.6666C5.58408 18.7912 5.02989 19.788 4.98103 19.8818C4.77843 20.2706 5.75016 19.5526 6.59207 18.6915ZM11.327 14.5773C12.4292 14.2291 12.8493 13.9602 13.7833 13.0049C14.8117 11.9531 14.9539 11.6967 15.4144 10.065C15.6918 9.08182 16.0961 7.71888 16.3129 7.03624C16.5296 6.3536 16.707 5.71011 16.707 5.60626C16.707 5.23964 15.5255 4.91701 14.5382 5.01404C13.4032 5.12558 12.6464 5.7298 12.1058 6.9559C11.7778 7.69993 11.7804 7.72273 12.2786 8.47367C12.8726 9.36879 12.9331 10.3653 12.4451 11.2104C12.0417 11.9088 10.414 12.7908 9.52858 12.7908C8.99164 12.7908 8.8246 12.9212 8.39034 13.6791C8.11042 14.1676 7.88139 14.6641 7.88139 14.7823C7.88139 15.1456 9.91025 15.0249 11.327 14.5773ZM14.2283 6.67265C14.043 6.17886 14.3095 5.76997 14.8167 5.76997C15.3628 5.76997 15.6426 6.29251 15.3135 6.69807C15.0163 7.06437 14.3696 7.04924 14.2283 6.67265ZM10.9752 11.3858C12.0611 10.7086 12.1959 9.56933 11.287 8.75015C11.0859 8.56885 9.47845 7.68375 7.71495 6.78326C5.95145 5.88277 4.03056 4.82137 3.4463 4.4246C2.86204 4.02783 2.33049 3.75794 2.26507 3.82484C2.11007 3.98338 3.01642 5.56153 3.54172 6.04776C4.00149 6.47334 3.92599 6.77294 3.35897 6.77294C2.41529 6.77294 3.34339 7.69269 4.79198 8.19308C5.87162 8.56602 6.21988 9.05313 5.53741 9.23567C5.0054 9.37796 5.02368 9.91908 5.56644 10.0953C5.80338 10.1722 6.4653 10.2308 7.03738 10.2256C7.78777 10.2187 8.07751 10.2919 8.07751 10.4886C8.07751 10.6385 7.98926 10.817 7.88139 10.8851C7.56602 11.0845 7.65557 11.5499 8.02848 11.6495C8.94694 11.895 10.3617 11.7684 10.9752 11.3858Z" fill="black"/>
</svg>
