<svg width="24" height="24" viewBox="0 0 24 24" fill="none" xmlns="http://www.w3.org/2000/svg">
<path d="M2.4538 19.5178C2.26425 19.2768 2.26068 19.1989 2.41239 18.6164C2.58552 17.9518 2.89157 17.3162 3.2972 16.7791L3.65744 16.302L3.35965 15.682C2.89938 14.7237 2.79446 14.2378 2.79286 13.0571C2.79143 11.8861 2.93265 11.2486 3.40183 10.3114C4.69531 7.7274 7.29109 6.29732 10.096 6.6234C11.0505 6.73437 11.6811 6.92461 12.5135 7.35271C13.2961 7.75516 14.0277 8.34476 14.5893 9.02551C15.0624 9.59912 15.6266 10.6838 15.7969 11.3473C15.8599 11.5929 15.9232 11.8056 15.9376 11.8199C15.952 11.8343 16.2965 11.3195 16.7032 10.676C17.3637 9.63095 17.8342 9.05748 18.2005 8.85113C18.3091 8.78994 18.2693 8.5671 17.8369 6.81582C17.5698 5.73419 17.3513 4.80489 17.3513 4.7507C17.3513 4.56985 17.7143 4.28076 17.9414 4.28076C18.3338 4.28076 18.4185 4.47545 18.9401 6.57485C19.321 8.10804 19.4601 8.55971 19.5572 8.57801C19.6618 8.59772 19.7544 8.30284 20.1157 6.80058C20.5964 4.80195 20.6753 4.63549 21.1243 4.67438C21.3039 4.68994 21.432 4.76147 21.5397 4.90635L21.6954 5.11582L21.2192 7.04625L20.7429 8.97669L21.0227 9.28641C21.5875 9.91159 21.7976 10.8239 21.5612 11.6251C21.4052 12.1537 18.9331 16.8404 18.4861 17.4548C18.0314 18.0799 17.2384 18.7349 16.489 19.1045C15.2694 19.7059 15.7097 19.672 8.79016 19.697L2.61227 19.7192L2.4538 19.5178ZM15.4508 18.3384C16.4152 17.9862 17.2345 17.3402 17.7552 16.5214C17.8951 16.3013 18.5652 15.0668 19.2442 13.7781C20.6116 11.1827 20.6692 11.0128 20.3932 10.3889C20.2113 9.97773 19.9647 9.79837 19.5109 9.74722C19.0829 9.69898 18.8546 9.75817 18.581 9.98842C18.4603 10.09 17.7852 11.0827 17.0809 12.1945C16.3766 13.3062 15.6301 14.4037 15.422 14.6333C14.9511 15.1529 14.298 15.5816 13.6495 15.7965C13.1784 15.9526 12.9734 15.9637 9.74764 16.0081C7.60068 16.0377 6.25443 16.0856 6.10318 16.1378C5.00974 16.5156 4.09044 17.3407 3.69547 18.2987L3.57756 18.5847L9.23497 18.5635L14.8924 18.5423L15.4508 18.3384ZM5.02879 15.3597C5.82068 14.9584 6.39343 14.8729 8.28828 14.8729H10.0202L10.1382 14.5905C10.4349 13.8803 10.3138 12.5379 9.89594 11.9048C9.65978 11.547 9.17248 11.291 8.72626 11.2903C7.95102 11.2888 7.44007 11.822 7.44007 12.6321C7.44007 12.9897 7.40815 13.0959 7.25437 13.2497C7.15223 13.3518 6.98045 13.4354 6.87264 13.4354C6.76482 13.4354 6.59305 13.3518 6.49091 13.2497C6.33179 13.0906 6.3052 12.9935 6.3052 12.5716C6.3052 11.18 7.31631 10.1821 8.72626 10.1821C9.44301 10.1821 9.98588 10.395 10.4689 10.8655C11.3079 11.6827 11.6125 13.0007 11.3294 14.5892L11.2788 14.8729H11.9215C13.1417 14.8729 13.8705 14.6184 14.5101 13.969L14.8621 13.6117V12.9653C14.8621 10.5823 13.2136 8.52955 10.769 7.86847C10.186 7.7108 8.73923 7.68886 8.16225 7.82893C7.5869 7.9686 6.84586 8.2836 6.33205 8.6069C5.73264 8.98406 4.88254 9.8809 4.54262 10.4947C3.76429 11.9002 3.68242 13.6846 4.33251 15.0738C4.45604 15.3378 4.57706 15.5538 4.60144 15.5538C4.6258 15.5538 4.81812 15.4665 5.02879 15.3597Z" fill="black"/>
</svg>
